# xmcd
#
# Track frame offsets:
#	182
#	14955
#	30435
#	45015
#	61207
#	72772
#	84960
#	97785
#	113140
#	125722
#	142877
#	159120
#
# Disc length: 2275 seconds
# Revision: 1
# Processed by: cddbd v1.5.2PL0 Copyright (c) Steve Scherf et al.
# Submitted via: dBpowerAMP V12.0
#
DISCID=8808e10c
DTITLE=Graham Rodger - Steering Wheel Drovers
DYEAR=2012
DGENRE=Country
TTITLE0=Drysdale River
TTITLE1=King of the Roadtrains
TTITLE2=Give Me Waltzing Matilda
TTITLE3=Old Landcruiser
TTITLE4=The Murranji Muster
TTITLE5=Get Right Off the Place
TTITLE6=We're Gonna' Rock This Old Pub Tonight
TTITLE7=Steering Wheel Drovers
TTITLE8=Old Man Drought
TTITLE9=Roses and Diesel
TTITLE10=Youv'E Got to Be Mad to Be an Old Truckie Like Me
TTITLE11=The Miners Arms Hotel
EXTD=
EXTT0=
EXTT1=
EXTT2=
EXTT3=
EXTT4=
EXTT5=
EXTT6=
EXTT7=
EXTT8=
EXTT9=
EXTT10=
EXTT11=
PLAYORDER=
